<svg xmlns="http://www.w3.org/2000/svg" width="18" height="21" viewBox="0 0 50.266 37.295">
  <g id="Group_313" data-name="Group 313" transform="translate(-307.701 -249)">
    <g id="Group_240" data-name="Group 240" transform="translate(189.16 249)">
      <g id="Group_181" data-name="Group 181" transform="translate(0 0.725)">
        <path id="Path_83" data-name="Path 83" d="M757.539,256.906a4.913,4.913,0,0,0-1.861-3.97,4.606,4.606,0,0,0-3.581-.659,4.424,4.424,0,0,0-2.951,1.969c-2.531,4.239-9.229,14.1-16.722,14.1-7.519,0-14.22-9.861-16.751-14.1a4.414,4.414,0,0,0-2.941-1.969,4.615,4.615,0,0,0-3.592.659,5.128,5.128,0,0,0-1.186,6.507c6.508,10.912,17.251,14.784,24.472,14.784s17.932-3.871,24.444-14.78a4.972,4.972,0,0,0,.669-2.541Z" transform="translate(-588.733 -252.17)" fill="#FFF"/>
      </g>
      <circle id="Ellipse_13" data-name="Ellipse 13" cx="5.606" cy="5.606" r="5.606" transform="translate(138.069 0)" fill="#FFF"/>
      <circle id="Ellipse_14" data-name="Ellipse 14" cx="5.606" cy="5.606" r="5.606" transform="translate(138.069 26.083)" fill="#FFF"/>
    </g>
  </g>
</svg>
