<svg xmlns="http://www.w3.org/2000/svg" width="256" height="256" viewBox="0 0 256 256"><g transform="translate(-59 -48)"><rect width="256" height="256" transform="translate(59 48)" fill="#ffd32f"/><g transform="translate(86.658 100.129)"><g transform="translate(5.278 11.338)"><path d="M897.4,270.111a18.581,18.581,0,0,0-7.039-15.016,17.42,17.42,0,0,0-13.545-2.493,16.731,16.731,0,0,0-11.162,7.447c-9.574,16.034-34.908,53.333-63.249,53.333-28.44,0-53.786-37.3-63.359-53.332a16.7,16.7,0,0,0-11.124-7.448,17.455,17.455,0,0,0-13.586,2.493,19.393,19.393,0,0,0-4.486,24.612c24.616,41.273,65.25,55.919,92.564,55.919s67.827-14.64,92.457-55.9A18.8,18.8,0,0,0,897.4,270.111Z" transform="translate(-707.279 -249.455)" fill="#fff"/><circle cx="21.204" cy="21.204" r="21.204" transform="translate(73.858 0)" fill="#fff"/><circle cx="21.204" cy="21.204" r="21.204" transform="translate(73.858 98.657)" fill="#fff"/></g></g></g></svg>